<?xml version="1.0" encoding="utf-8"?>
<!-- Generator: Adobe Illustrator 25.4.1, SVG Export Plug-In . SVG Version: 6.00 Build 0)  -->
<svg version="1.1" id="Layer_1" xmlns="http://www.w3.org/2000/svg" xmlns:xlink="http://www.w3.org/1999/xlink" x="0px" y="0px"
	 viewBox="0 0 568 164" style="enable-background:new 0 0 568 164;" xml:space="preserve">
<style type="text/css">
	.st0{fill:none;stroke:#000000;stroke-miterlimit:10;}
	.st1{fill:#EC008C;}
	.st2{fill:none;stroke:#EC008C;stroke-miterlimit:10;}
	.st3{font-family:'MyriadPro-Regular';}
	.st4{font-size:12px;}
	.st5{fill:#808285;}
	.st6{fill:#FFFFFF;stroke:#000000;stroke-miterlimit:10;}
	.st7{fill:none;stroke:#000000;stroke-width:2;stroke-miterlimit:10;}
</style>
<path class="st0" d="M129.5,155.9c-20.4-12.3-26.7-48-18.7-74.2c4.3-14.1,12-23.2,16.7-27.8c1.6-1.6,31.2-30,56.2-13.9
	c14.7,9.4,24.4,32,18.7,46.4c-6.8,17.4-31.5,10.9-39.6,30.2c-6.6,15.7,5.6,30.1-2.1,39.4C154.3,163.6,139.2,161.7,129.5,155.9z"/>
<g>
	<line class="st1" x1="222" y1="50" x2="174.9" y2="36.2"/>
	<g>
		<line class="st2" x1="219.1" y1="49.2" x2="174.9" y2="36.2"/>
		<g>
			<path class="st1" d="M222,50c-1.2-0.9-2.7-2.3-3.4-3.5l0.2,2.5l-1.5,2C218.5,50.5,220.5,50.1,222,50z"/>
		</g>
	</g>
</g>
<text transform="matrix(1 0 0 1 161.6724 52.3472)" class="st3 st4">B(t)</text>
<circle class="st5" cx="176" cy="36" r="4"/>
<text transform="matrix(1 0 0 1 196.6977 39.0464)" class="st1 st3 st4">d/dt B(t)</text>
<text transform="matrix(1 0 0 1 141.0171 14.6587)" class="st3 st4">Curve space</text>
<line class="st6" x1="-2" y1="130.3" x2="94.4" y2="130.3"/>
<rect x="348.5" y="98.5" class="st6" width="65" height="61"/>
<path class="st6" d="M440.5,93.5c5-12.7,15.4-34.3,33.8-48c20-14.8,55.2-24.5,74.5,5c9.4,14.5,11.6,33.1,12.2,44
	c-7.1-2.8-32-11.4-56.9,8c-10.6,8.2-17.8,18.9-22.3,27c-2.6-6.3-9.2-20.3-21.7-29C452.3,95,445.1,93.7,440.5,93.5z"/>
<text transform="matrix(1 0 0 1 473.4243 12.5149)" class="st3 st4">Surface space</text>
<circle cx="16" cy="130" r="4"/>
<circle cx="76" cy="130" r="4"/>
<circle class="st5" cx="57" cy="130" r="4"/>
<text transform="matrix(1 0 0 1 11.2319 151.1523)" class="st3 st4">0</text>
<text transform="matrix(1 0 0 1 74.1543 150.8345)" class="st3 st4">1</text>
<text transform="matrix(1 0 0 1 52.8042 150.8662)" class="st3 st4">t</text>
<text transform="matrix(1 0 0 1 356.6055 151.564)" class="st3 st4">D</text>
<circle class="st5" cx="389.1" cy="115" r="4"/>
<text transform="matrix(1 0 0 1 371.7722 131.1673)" class="st3 st4">s=(u, v)</text>
<circle class="st5" cx="498" cy="52" r="4"/>
<text transform="matrix(1 0 0 1 492.291 69.1035)" class="st3 st4">f(s)</text>
<g>
	<line class="st1" x1="498" y1="17" x2="497.9" y2="49.3"/>
	<g>
		<line class="st2" x1="498" y1="20" x2="497.9" y2="49.3"/>
		<g>
			<path class="st1" d="M498,17c-0.5,1.4-1.4,3.2-2.4,4.3l2.4-0.9l2.4,0.9C499.4,20.2,498.5,18.4,498,17z"/>
		</g>
	</g>
</g>
<text transform="matrix(1 0 0 1 470.9638 31.0074)" class="st1 st3 st4">n(s)</text>
<g>
	<g>
		<path class="st7" d="M44,90c-0.2-2.4-1.5-20.1,12-33c8.3-7.9,19.7-11.6,31.2-10.7"/>
		<g>
			<path d="M99,49c-6,0.9-13.6,2.9-18.7,5.8l5.3-8.6l-1.4-10C87.7,40.8,93.9,45.8,99,49z"/>
		</g>
	</g>
</g>
<g>
	<g>
		<path class="st7" d="M385.7,87.4c-0.2-2.4-1.5-20.1,12-33c8.3-7.9,19.7-11.6,31.2-10.7"/>
		<g>
			<path d="M440.7,46.4c-6,0.9-13.6,2.9-18.7,5.8l5.3-8.6l-1.4-10C429.4,38.1,435.6,43.1,440.7,46.4z"/>
		</g>
	</g>
</g>
<text transform="matrix(1 0 0 1 46.5181 46.5156)" class="st3 st4">B</text>
<text transform="matrix(1 0 0 1 381.3672 51.7061)" class="st3 st4">f</text>
</svg>
