<?xml version="1.0" encoding="utf-8"?>
<!-- Generator: Adobe Illustrator 25.4.1, SVG Export Plug-In . SVG Version: 6.00 Build 0)  -->
<svg version="1.1" id="Layer_1" xmlns="http://www.w3.org/2000/svg" xmlns:xlink="http://www.w3.org/1999/xlink" x="0px" y="0px"
	 viewBox="0 0 200 127" style="enable-background:new 0 0 200 127;" xml:space="preserve">
<style type="text/css">
	.st0{font-family:'MyriadPro-Regular';}
	.st1{font-size:12px;}
	.st2{fill:none;}
	.st3{fill:none;stroke:#A7A9AC;stroke-miterlimit:10;}
	.st4{fill:#ABA8D4;}
	.st5{fill:none;stroke:#ADA8D3;stroke-miterlimit:10;}
	.st6{fill:#ADA8D3;}
	.st7{fill:none;stroke:#ADA8D3;stroke-miterlimit:10;stroke-dasharray:6,2;}
	.st8{fill:none;stroke:#A7A9AC;stroke-miterlimit:10;stroke-dasharray:6,2;}
	.st9{fill:none;stroke:#EF4136;stroke-miterlimit:10;stroke-dasharray:6,2;}
	.st10{fill:#EF4136;}
	.st11{fill:none;stroke:#EF4136;stroke-miterlimit:10;}
</style>
<text transform="matrix(1 0 0 1 150.3212 111.8537)" class="st0 st1"> </text>
<text transform="matrix(1 0 0 1 150.3212 111.8537)" class="st0 st1"> </text>
<rect x="-55" y="-3" class="st2" width="309" height="116"/>
<text transform="matrix(1 0 0 1 112.1035 115.0981)" class="st0 st1">Diff(D)</text>
<path class="st3" d="M3,39c10.9,6.2,25.3,15.8,39.5,30.5C60.1,87.7,70.3,106.2,76,119c14.1-10.3,36.5-23.9,66.5-32.5
	c21.2-6,40.1-7.8,54.5-8c-5.6-10.9-16.1-28-34.5-44c-18.2-15.9-36.5-23.9-48-28c-11.5-2-32.8-4-58,3C29.7,17,11.8,31.1,3,39z"/>
<g>
	<ellipse cx="72" cy="22.9" rx="3" ry="2.9"/>
</g>
<g>
	<ellipse cx="103" cy="16.8" rx="3" ry="2.9"/>
</g>
<g>
	<ellipse cx="97" cy="38" rx="3" ry="2.9"/>
</g>
<g>
	<ellipse cx="123" cy="34.4" rx="3" ry="2.9"/>
</g>
<g>
	<ellipse cx="109" cy="63.7" rx="3" ry="2.9"/>
</g>
<g>
	<ellipse cx="142.5" cy="72.7" rx="3" ry="2.9"/>
</g>
<g>
	<line class="st4" x1="42.3" y1="38.2" x2="66.6" y2="17.7"/>
	<g>
		<line class="st5" x1="42.3" y1="38.2" x2="64.3" y2="19.6"/>
		<g>
			<path class="st6" d="M66.6,17.7c-0.7,1.3-1.5,3.1-1.7,4.6L64,19.9l-2.2-1.3C63.2,18.6,65.2,18.2,66.6,17.7z"/>
		</g>
	</g>
</g>
<path class="st7" d="M113.1,19.7c-9.1-1.2-28.9-2.2-41.8,1.4c-13,3.6-22.3,12-28.5,17.7"/>
<path class="st7" d="M149,75c-7.8-2.2-25.3-5.7-38.6-4.6c-13.3,1-25.3,6.4-33.3,9.9"/>
<g>
	<line class="st4" x1="65" y1="55.9" x2="93.8" y2="42.5"/>
	<g>
		<line class="st5" x1="65" y1="55.9" x2="91.1" y2="43.8"/>
		<g>
			<path class="st6" d="M93.8,42.5c-1.1,1.1-2.3,2.6-2.9,4l-0.2-2.5L89,42.2C90.3,42.6,92.3,42.6,93.8,42.5z"/>
		</g>
	</g>
</g>
<g>
	<line class="st4" x1="65" y1="55.4" x2="89.3" y2="34.8"/>
	<g>
		<line class="st5" x1="65" y1="55.4" x2="87" y2="36.8"/>
		<g>
			<path class="st6" d="M89.3,34.8c-0.7,1.3-1.5,3.1-1.7,4.6L86.7,37l-2.2-1.3C85.9,35.8,87.9,35.3,89.3,34.8z"/>
		</g>
	</g>
</g>
<path class="st8" d="M65,55c-1.8-2.1-6.1-6.8-10.2-10c-4.1-3.2-8.9-5.8-12.1-7.5"/>
<path class="st8" d="M77.1,81.2c-0.6-2.7-2.4-8.8-4.6-13.6c-2.2-4.8-5.3-9.2-7.3-12.2"/>
<path class="st9" d="M148,36c-10.2-1.4-32.5-2.6-48,1.2c-15.5,3.9-27.8,13.1-36,19.2"/>
<g>
	<ellipse class="st10" cx="64.9" cy="54.9" rx="3" ry="2.9"/>
</g>
<g>
	<line class="st4" x1="76.5" y1="79.6" x2="105.3" y2="66.2"/>
	<g>
		<line class="st5" x1="76.5" y1="79.6" x2="102.6" y2="67.5"/>
		<g>
			<path class="st6" d="M105.3,66.2c-1.1,1.1-2.3,2.6-2.9,4l-0.2-2.5l-1.8-1.8C101.9,66.3,103.8,66.3,105.3,66.2z"/>
		</g>
	</g>
</g>
<g>
	<ellipse cx="43.9" cy="38.3" rx="3" ry="2.9"/>
</g>
<g>
	<ellipse cx="77" cy="81" rx="3" ry="2.9"/>
</g>
<g>
	<line class="st4" x1="67.8" y1="53.8" x2="92.1" y2="37.7"/>
	<g>
		<line class="st11" x1="67.8" y1="53.8" x2="89.6" y2="39.3"/>
		<g>
			<path class="st10" d="M92.1,37.7c-0.9,1.2-1.9,2.9-2.2,4.3l-0.6-2.5l-2-1.5C88.7,38.2,90.6,38,92.1,37.7z"/>
		</g>
	</g>
</g>
<g>
	<ellipse cx="148.3" cy="35.9" rx="3" ry="2.9"/>
</g>
</svg>
