<?xml version="1.0" encoding="utf-8"?>
<!-- Generator: Adobe Illustrator 25.4.1, SVG Export Plug-In . SVG Version: 6.00 Build 0)  -->
<svg version="1.1" id="Layer_1" xmlns="http://www.w3.org/2000/svg" xmlns:xlink="http://www.w3.org/1999/xlink" x="0px" y="0px"
	 viewBox="0 0 708 163" style="enable-background:new 0 0 708 163;" xml:space="preserve">
<style type="text/css">
	.st0{fill:none;stroke:#000000;stroke-miterlimit:10;}
	.st1{fill:none;}
	.st2{fill:none;stroke:#EC008C;stroke-miterlimit:10;}
	.st3{fill:#EC008C;}
	.st4{fill:none;stroke:#000000;stroke-width:4;stroke-miterlimit:10;}
	.st5{font-family:'ArialMT';}
	.st6{font-size:12px;}
	.st7{fill:#FFFFFF;stroke:#010101;stroke-miterlimit:10;}
	.st8{fill:#010101;}
	.st9{fill:#818285;}
	.st10{fill:none;stroke:#EB0D8C;stroke-miterlimit:10;}
	.st11{fill:#EB0D8C;}
</style>
<path class="st0" d="M26.9,152.5c-20.4-12.3-26.7-48-18.7-74.2c4.3-14.1,12-23.2,16.7-27.8c1.6-1.6,31.2-30,56.2-13.9
	c14.7,9.4,24.4,32,18.7,46.4c-6.8,17.4-31.5,10.9-39.6,30.2c-6.6,15.7,5.6,30.1-2.1,39.4C51.7,160.3,36.6,158.4,26.9,152.5z"/>
<g>
	<line class="st1" x1="119.4" y1="46.6" x2="72.3" y2="32.8"/>
	<g>
		<line class="st2" x1="116.5" y1="45.8" x2="72.3" y2="32.8"/>
		<g>
			<path class="st3" d="M119.4,46.6c-1.2-0.9-2.7-2.3-3.4-3.5l0.2,2.5l-1.5,2C116,47.1,117.9,46.7,119.4,46.6z"/>
		</g>
	</g>
</g>
<g>
	<g>
		<line class="st4" x1="168.3" y1="87.7" x2="129.9" y2="88"/>
		<g>
			<path d="M180.4,87.6c-5.7-2.1-12.8-5.6-17.2-9.4l3.5,9.5l-3.4,9.5C167.7,93.4,174.8,89.8,180.4,87.6z"/>
		</g>
	</g>
</g>
<path class="st0" d="M228,48.8c18.8-7.4,45.9-2.3,58.9,17.3c13.3,20.1,8.5,50.2-4.3,56.4c-12.9,6.2-26.7-17.9-48.4-11.4
	c-16.4,4.9-19.7,23.5-31.8,23.5C192.3,134.5,189,64.2,228,48.8z"/>
<text transform="matrix(1 0 0 1 59.0878 48.9791)" class="st5 st6">B(t)</text>
<circle cx="73.4" cy="32.6" r="4"/>
<text transform="matrix(1 0 0 1 94.1132 35.6783)" class="st3 st5 st6">d/dt B(t)</text>
<text transform="matrix(1 0 0 1 38.4326 11.2906)" class="st5 st6">Curve space</text>
<text transform="matrix(1 0 0 1 222.1898 11.0446)" class="st5 st6">SRV space</text>
<text transform="matrix(1 0 0 1 238.1137 62.0009)" class="st3 st5 st6">q(t)</text>
<circle class="st3" cx="248.4" cy="46.7" r="4"/>
<path class="st7" d="M380.9,110c5-12.7,15.4-34.3,33.8-48c20-14.8,55.2-24.5,74.5,5c9.4,14.5,11.6,33.1,12.2,44
	c-7.1-2.8-32-11.4-56.9,8c-10.6,8.2-17.8,18.9-22.3,27c-2.6-6.3-9.2-20.3-21.7-29C392.7,111.5,385.5,110.2,380.9,110z"/>
<text transform="matrix(1 0 0 1 411.8412 11.034)" class="st8 st5 st6">Surface space</text>
<circle class="st9" cx="438.4" cy="68.5" r="4"/>
<text transform="matrix(1 0 0 1 432.7079 85.6226)" class="st8 st5 st6">f(s)</text>
<g>
	<line class="st1" x1="438.4" y1="33.5" x2="438.3" y2="65.8"/>
	<g>
		<line class="st10" x1="438.4" y1="36.5" x2="438.3" y2="65.8"/>
		<g>
			<path class="st11" d="M438.4,33.5c-0.5,1.4-1.4,3.2-2.4,4.3l2.4-0.9l2.4,0.9C439.8,36.7,438.9,34.9,438.4,33.5z"/>
		</g>
	</g>
</g>
<text transform="matrix(1 0 0 1 411.3807 47.5265)" class="st11 st5 st6">n(s)</text>
<g>
	<g>
		<line class="st4" x1="553.4" y1="87.1" x2="514.9" y2="87.4"/>
		<g>
			<path d="M565.4,87c-5.7-2.1-12.8-5.6-17.2-9.4l3.5,9.5l-3.4,9.5C552.7,92.8,559.8,89.1,565.4,87z"/>
		</g>
	</g>
</g>
<path class="st7" d="M575,104.8c4-11.5,16.2-42.2,43.2-59.3c17.8-11.3,34.4-11.8,42.9-12C680,33.1,695,39,704,43.5
	c-3.1,4.8-8.5,14.6-10.9,29c-2.8,16.6,0,30,1.6,36c-24.8-22-54.2-22.7-71.7-4c-10.8,11.6-14.4,27.7-15.7,36.3
	c-2-6.3-7.2-20.3-16.9-29C584.2,106.3,578.6,105,575,104.8z"/>
<path class="st7" d="M669.5,131.5"/>
<circle class="st3" cx="628.1" cy="68" r="4"/>
<text transform="matrix(1 0 0 1 639.4257 70.0267)" class="st3 st5 st6">q(s)</text>
<text transform="matrix(1 0 0 1 612.1752 12.6496)" class="st5 st6">SNRF space</text>
</svg>
