<?xml version="1.0" encoding="utf-8"?>
<!-- Generator: Adobe Illustrator 25.4.1, SVG Export Plug-In . SVG Version: 6.00 Build 0)  -->
<svg version="1.1" id="Layer_1" xmlns="http://www.w3.org/2000/svg" xmlns:xlink="http://www.w3.org/1999/xlink" x="0px" y="0px"
	 viewBox="0 0 583 166.5" style="enable-background:new 0 0 583 166.5;" xml:space="preserve">
<style type="text/css">
	.st0{fill:none;}
	.st1{fill:none;stroke:#6D6E71;stroke-width:2;stroke-miterlimit:10;}
	.st2{font-family:'ArialMT';}
	.st3{font-size:12px;}
	.st4{fill:#21409A;}
	.st5{fill:#EF4136;}
</style>
<polyline class="st0" points="36,29.5 36,139.6 145.8,139.6 "/>
<polyline class="st0" points="171,131.2 96.2,131.2 48,173.5 "/>
<g>
	<polyline class="st1" points="57,10.5 57,95.5 146,95.5 	"/>
	<line class="st1" x1="-10" y1="132.5" x2="57" y2="95.5"/>
</g>
<g>
	<polyline class="st1" points="247.2,13.3 247.2,98.3 330,98.3 	"/>
	<line class="st1" x1="180.2" y1="135.4" x2="247.2" y2="98.3"/>
</g>
<g>
	<polyline class="st1" points="447.2,11.3 447.2,96.3 535,96.3 	"/>
	<line class="st1" x1="380.2" y1="133.4" x2="447.2" y2="96.3"/>
	<circle class="st1" cx="448.5" cy="96" r="54.5"/>
	<ellipse class="st1" cx="448.7" cy="96.4" rx="54.5" ry="12.9"/>
</g>
<text transform="matrix(1 0 0 1 27.4198 152.2871)" class="st2 st3">Space of surfaces</text>
<text transform="matrix(1 0 0 1 220.1531 152.2871)" class="st2 st3">Space of SNRFs</text>
<text transform="matrix(1 0 0 1 466.6112 20.2871)" class="st2 st3">Space of SNRFs</text>
<text transform="matrix(1 0 0 1 466.6112 34.6871)" class="st2 st3">of rescaled surfaces</text>
<circle class="st4" cx="91" cy="44.5" r="4"/>
<text transform="matrix(1 0 0 1 101.3329 49.2871)" class="st4 st2 st3">f</text>
<circle class="st5" cx="294" cy="68.5" r="4"/>
<text transform="matrix(1 0 0 1 308.7268 73.2871)" class="st5 st2 st3">q</text>
</svg>
