<?xml version="1.0" encoding="utf-8"?>
<!-- Generator: Adobe Illustrator 25.4.1, SVG Export Plug-In . SVG Version: 6.00 Build 0)  -->
<svg version="1.1" id="Layer_1" xmlns="http://www.w3.org/2000/svg" xmlns:xlink="http://www.w3.org/1999/xlink" x="0px" y="0px"
	 viewBox="0 0 315.1 164" style="enable-background:new 0 0 315.1 164;" xml:space="preserve">
<style type="text/css">
	.st0{fill:none;stroke:#000000;stroke-miterlimit:10;}
	.st1{fill:none;}
	.st2{fill:none;stroke:#EC008C;stroke-miterlimit:10;}
	.st3{fill:#EC008C;}
	.st4{fill:none;stroke:#000000;stroke-width:4;stroke-miterlimit:10;}
	.st5{font-family:'ArialMT';}
	.st6{font-size:12px;}
</style>
<path class="st0" d="M34.5,152.9c-20.5-12.4-26.7-48-18.8-74.3c4.3-14.1,12-23.2,16.7-27.8c1.6-1.6,31.2-30,56.2-13.9
	c14.7,9.4,24.4,32,18.7,46.4c-6.8,17.4-31.5,10.9-39.6,30.2c-6.6,15.7,5.6,30.1-2.1,39.4C59.3,160.6,44.2,158.7,34.5,152.9z"/>
<g>
	<line class="st1" x1="127" y1="47" x2="79.9" y2="33.2"/>
	<g>
		<line class="st2" x1="124.1" y1="46.2" x2="79.9" y2="33.2"/>
		<g>
			<path class="st3" d="M127,47c-1.2-0.9-2.7-2.3-3.4-3.5l0.2,2.5l-1.5,2C123.5,47.5,125.5,47.1,127,47z"/>
		</g>
	</g>
</g>
<g>
	<g>
		<line class="st4" x1="138.6" y1="90.2" x2="177" y2="90.2"/>
		<g>
			<path d="M126.5,90.2c5.7,2.1,12.7,5.7,17.1,9.5l-3.4-9.5l3.4-9.5C139.2,84.5,132.2,88.1,126.5,90.2z"/>
		</g>
	</g>
</g>
<path class="st0" d="M235.6,49.2c18.8-7.4,45.9-2.3,58.9,17.3c13.3,20.1,8.5,50.2-4.3,56.4c-12.9,6.2-26.7-17.9-48.4-11.4
	c-16.4,4.9-19.7,23.5-31.8,23.5C199.8,134.9,196.5,64.6,235.6,49.2z"/>
<text transform="matrix(1 0 0 1 66.6724 49.3472)" class="st5 st6">B(t)</text>
<circle cx="81" cy="33" r="4"/>
<text transform="matrix(1 0 0 1 101.6977 36.0464)" class="st3 st5 st6">d/dt B(t)</text>
<text transform="matrix(1 0 0 1 245.6982 62.369)" class="st3 st5 st6">q(t)</text>
<circle class="st3" cx="256" cy="47" r="4"/>
<text transform="matrix(1 0 0 1 105.7094 119.9288)" class="st5 st6">Up to translation</text>
<text transform="matrix(1 0 0 1 6.1214 13.5176)" class="st5 st6">Curve in ambient space</text>
<text transform="matrix(1 0 0 1 189.8787 13.2716)" class="st5 st6">SRV in ambient space</text>
</svg>
