<?xml version="1.0" encoding="utf-8"?>
<!-- Generator: Adobe Illustrator 25.4.1, SVG Export Plug-In . SVG Version: 6.00 Build 0)  -->
<svg version="1.1" id="Layer_1" xmlns="http://www.w3.org/2000/svg" xmlns:xlink="http://www.w3.org/1999/xlink" x="0px" y="0px"
	 viewBox="0 0 304.7 164" style="enable-background:new 0 0 304.7 164;" xml:space="preserve">
<style type="text/css">
	.st0{fill:none;stroke:#000000;stroke-miterlimit:10;}
	.st1{fill:none;}
	.st2{fill:none;stroke:#EC008C;stroke-miterlimit:10;}
	.st3{fill:#EC008C;}
	.st4{fill:none;stroke:#000000;stroke-width:4;stroke-miterlimit:10;}
	.st5{font-family:'ArialMT';}
	.st6{font-size:12px;}
</style>
<path class="st0" d="M28.5,152.9C8,140.5,1.8,104.9,9.7,78.6c4.3-14.1,12-23.2,16.7-27.8c1.6-1.6,31.2-30,56.2-13.9
	c14.7,9.4,24.4,32,18.7,46.4c-6.8,17.4-31.5,10.9-39.6,30.2c-6.6,15.7,5.6,30.1-2.1,39.4C53.3,160.6,38.2,158.7,28.5,152.9z"/>
<g>
	<line class="st1" x1="121" y1="47" x2="73.9" y2="33.2"/>
	<g>
		<line class="st2" x1="118.1" y1="46.2" x2="73.9" y2="33.2"/>
		<g>
			<path class="st3" d="M121,47c-1.2-0.9-2.7-2.3-3.4-3.5l0.2,2.5l-1.5,2C117.5,47.5,119.5,47.1,121,47z"/>
		</g>
	</g>
</g>
<g>
	<g>
		<line class="st4" x1="169.9" y1="88.1" x2="131.5" y2="88.4"/>
		<g>
			<path d="M182,88c-5.7-2.1-12.8-5.6-17.2-9.4l3.5,9.5l-3.4,9.5C169.3,93.8,176.3,90.2,182,88z"/>
		</g>
	</g>
</g>
<path class="st0" d="M229.6,49.2c18.8-7.4,45.9-2.3,58.9,17.3c13.3,20.1,8.5,50.2-4.3,56.4c-12.9,6.2-26.7-17.9-48.4-11.4
	c-16.4,4.9-19.7,23.5-31.8,23.5C193.8,134.9,190.5,64.6,229.6,49.2z"/>
<text transform="matrix(1 0 0 1 60.6724 49.3472)" class="st5 st6">B(t)</text>
<circle cx="75" cy="33" r="4"/>
<text transform="matrix(1 0 0 1 95.6977 36.0464)" class="st3 st5 st6">d/dt B(t)</text>
<text transform="matrix(1 0 0 1 1.0171 11.6587)" class="st5 st6">Curve in ambient space</text>
<text transform="matrix(1 0 0 1 184.7744 11.4127)" class="st5 st6">SRV in ambient space</text>
<text transform="matrix(1 0 0 1 239.6982 62.369)" class="st3 st5 st6">q(t)</text>
<circle class="st3" cx="250" cy="47" r="4"/>
</svg>
