<?xml version="1.0" encoding="utf-8"?>
<!-- Generator: Adobe Illustrator 25.4.1, SVG Export Plug-In . SVG Version: 6.00 Build 0)  -->
<svg version="1.1" id="Layer_1" xmlns="http://www.w3.org/2000/svg" xmlns:xlink="http://www.w3.org/1999/xlink" x="0px" y="0px"
	 viewBox="0 0 563 333" style="enable-background:new 0 0 563 333;" xml:space="preserve">
<style type="text/css">
	.st0{fill:none;stroke:#21409A;stroke-miterlimit:10;}
	.st1{fill:#EC008C;}
	.st2{fill:none;stroke:#EC008C;stroke-miterlimit:10;}
	.st3{fill:none;stroke:#000000;stroke-width:4;stroke-miterlimit:10;}
	.st4{fill:none;stroke:#F15A29;stroke-miterlimit:10;}
	.st5{fill:#21409A;}
	.st6{font-family:'MyriadPro-Regular';}
	.st7{font-size:12px;}
	.st8{fill:none;}
	.st9{fill:none;stroke:#6D6E71;stroke-width:2;stroke-miterlimit:10;}
	.st10{fill:#EF4136;}
</style>
<path class="st0" d="M40.5,152.9c-20.4-12.3-26.7-48-18.7-74.2c4.3-14.1,12-23.2,16.7-27.8c1.6-1.6,31.2-30,56.2-13.9
	c14.7,9.4,24.4,32,18.7,46.4c-6.8,17.4-31.5,10.9-39.6,30.2c-6.6,15.7,5.6,30.1-2.1,39.4C65.3,160.6,50.2,158.7,40.5,152.9z"/>
<g>
	<line class="st1" x1="133" y1="47" x2="85.9" y2="33.2"/>
	<g>
		<line class="st2" x1="130.1" y1="46.2" x2="85.9" y2="33.2"/>
		<g>
			<path class="st1" d="M133,47c-1.2-0.9-2.7-2.3-3.4-3.5l0.2,2.5l-1.5,2C129.5,47.5,131.5,47.1,133,47z"/>
		</g>
	</g>
</g>
<g>
	<g>
		<line class="st3" x1="144.6" y1="90.2" x2="183" y2="90.2"/>
		<g>
			<path d="M132.5,90.2c5.7,2.1,12.7,5.7,17.1,9.5l-3.4-9.5l3.4-9.5C145.2,84.5,138.2,88.1,132.5,90.2z"/>
		</g>
	</g>
</g>
<path class="st4" d="M241.6,49.2c18.8-7.4,45.9-2.3,58.9,17.3c13.3,20.1,8.5,50.2-4.3,56.4c-12.9,6.2-26.7-17.9-48.4-11.4
	c-16.4,4.9-19.7,23.5-31.8,23.5C205.8,134.9,202.5,64.6,241.6,49.2z"/>
<text transform="matrix(1 0 0 1 72.6724 49.3472)" class="st5 st6 st7">B(t)</text>
<circle cx="87" cy="33" r="4"/>
<text transform="matrix(1 0 0 1 107.6977 36.0464)" class="st1 st6 st7">d/dt B(t)</text>
<text transform="matrix(1 0 0 1 23.0171 11.6587)" class="st6 st7">Curve in ambient space</text>
<text transform="matrix(1 0 0 1 235.7744 11.4127)" class="st6 st7">SRV in ambient space</text>
<text transform="matrix(1 0 0 1 251.6982 62.369)" class="st1 st6 st7">q(t)</text>
<circle class="st1" cx="262" cy="47" r="4"/>
<text transform="matrix(1 0 0 1 111.7094 119.9288)" class="st6 st7">Up to translation</text>
<polyline class="st8" points="36,196 36,306.1 145.8,306.1 "/>
<polyline class="st8" points="171,297.7 96.2,297.7 48,340 "/>
<g>
	<polyline class="st9" points="57,177 57,262 146,262 	"/>
	<line class="st9" x1="-10" y1="299" x2="57" y2="262"/>
</g>
<g>
	<polyline class="st9" points="247.2,179.8 247.2,264.8 330,264.8 	"/>
	<line class="st9" x1="180.2" y1="301.9" x2="247.2" y2="264.8"/>
</g>
<g>
	<polyline class="st9" points="447.2,177.8 447.2,262.8 535,262.8 	"/>
	<line class="st9" x1="380.2" y1="299.9" x2="447.2" y2="262.8"/>
	<circle class="st9" cx="448.5" cy="262.5" r="54.5"/>
	<ellipse class="st9" cx="448.7" cy="262.9" rx="54.5" ry="12.9"/>
</g>
<text transform="matrix(1 0 0 1 27.4198 318.7871)" class="st6 st7">Space of curves</text>
<text transform="matrix(1 0 0 1 220.1531 318.7871)" class="st6 st7">Space of SRVs</text>
<text transform="matrix(1 0 0 1 466.6112 186.7871)"><tspan x="0" y="0" class="st6 st7">Space of SRVs</tspan><tspan x="0" y="14.4" class="st6 st7">of rescaled curves</tspan></text>
<circle class="st5" cx="91" cy="211" r="4"/>
<text transform="matrix(1 0 0 1 101.3329 215.7871)" class="st5 st6 st7">B</text>
<circle class="st10" cx="294" cy="235" r="4"/>
<text transform="matrix(1 0 0 1 308.7268 239.7871)" class="st10 st6 st7">q</text>
</svg>
